<svg xmlns="http://www.w3.org/2000/svg" viewBox="0 0 1200 760"><rect width="1200" height="760" fill="#eaf8f1"/><rect x="42" y="38" width="1116" height="684" rx="28" fill="#fff"/><rect x="42" y="38" width="1116" height="62" rx="28" fill="#0b120f" opacity=".96"/><circle cx="78" cy="69" r="6" fill="#fff" opacity=".35"/><circle cx="100" cy="69" r="6" fill="#fff" opacity=".22"/><circle cx="122" cy="69" r="6" fill="#fff" opacity=".14"/><text x="82" y="157" font-family="Arial,sans-serif" font-size="17" letter-spacing="5" fill="#0b120f" opacity=".48">DIGITAL EXPERIENCE</text><text x="82" y="275" font-family="Georgia,serif" font-size="72" fill="#0b120f">Miraza</text><rect x="82" y="318" width="360" height="11" rx="6" fill="#0b120f" opacity=".13"/><rect x="82" y="348" width="280" height="11" rx="6" fill="#0b120f" opacity=".08"/><rect x="730" y="154" width="340" height="390" rx="24" fill="#eaf8f1"/><rect x="770" y="198" width="260" height="14" rx="7" fill="#0b120f" opacity=".14"/><rect x="770" y="230" width="190" height="10" rx="5" fill="#0b120f" opacity=".09"/><circle cx="900" cy="380" r="95" fill="#0b120f" opacity=".08"/><rect x="82" y="610" width="165" height="42" rx="21" fill="#0b120f"/><text x="115" y="637" font-family="Arial,sans-serif" font-size="14" fill="#fff">VIEW PROJECT ↗</text></svg>